<svg width="256" height="256" viewBox="0 0 256 256" fill="none" xmlns="http://www.w3.org/2000/svg">
<rect width="256" height="256" fill="#FF6058"/>
<path d="M90.3501 189.849C90.3501 191.435 90.0494 192.784 89.4481 193.897C88.8515 195.01 88.0371 195.86 87.0049 196.447C85.9774 197.029 84.8221 197.32 83.539 197.32C82.2464 197.32 81.0863 197.027 80.0589 196.44C79.0314 195.853 78.2194 195.003 77.6228 193.89C77.0262 192.777 76.7279 191.43 76.7279 189.849C76.7279 188.263 77.0262 186.913 77.6228 185.801C78.2194 184.688 79.0314 183.84 80.0589 183.258C81.0863 182.671 82.2464 182.377 83.539 182.377C84.8221 182.377 85.9774 182.671 87.0049 183.258C88.0371 183.84 88.8515 184.688 89.4481 185.801C90.0494 186.913 90.3501 188.263 90.3501 189.849ZM87.2322 189.849C87.2322 188.821 87.0783 187.955 86.7705 187.249C86.4675 186.544 86.039 186.009 85.485 185.644C84.931 185.28 84.2823 185.097 83.539 185.097C82.7956 185.097 82.1469 185.28 81.593 185.644C81.039 186.009 80.6081 186.544 80.3003 187.249C79.9973 187.955 79.8458 188.821 79.8458 189.849C79.8458 190.876 79.9973 191.743 80.3003 192.448C80.6081 193.154 81.039 193.689 81.593 194.053C82.1469 194.418 82.7956 194.6 83.539 194.6C84.2823 194.6 84.931 194.418 85.485 194.053C86.039 193.689 86.4675 193.154 86.7705 192.448C87.0783 191.743 87.2322 190.876 87.2322 189.849ZM92.5713 201.212V186.212H95.5542V188.045H95.6892C95.8218 187.751 96.0135 187.453 96.2645 187.15C96.5202 186.842 96.8516 186.586 97.2588 186.383C97.6707 186.175 98.1821 186.07 98.7929 186.07C99.5883 186.07 100.322 186.279 100.995 186.695C101.667 187.107 102.204 187.73 102.607 188.563C103.009 189.392 103.21 190.431 103.21 191.681C103.21 192.898 103.014 193.926 102.621 194.764C102.233 195.597 101.702 196.229 101.03 196.66C100.362 197.086 99.6144 197.299 98.7858 197.299C98.1987 197.299 97.6991 197.202 97.2872 197.008C96.88 196.814 96.5462 196.57 96.2858 196.276C96.0254 195.978 95.8265 195.677 95.6892 195.374H95.5969V201.212H92.5713ZM95.5329 191.667C95.5329 192.316 95.6229 192.881 95.8028 193.364C95.9828 193.847 96.2432 194.224 96.5841 194.494C96.925 194.759 97.3393 194.891 97.827 194.891C98.3194 194.891 98.7361 194.756 99.077 194.487C99.4179 194.212 99.6759 193.833 99.8511 193.35C100.031 192.863 100.121 192.301 100.121 191.667C100.121 191.037 100.033 190.483 99.8582 190.005C99.683 189.527 99.425 189.153 99.0841 188.883C98.7432 188.613 98.3241 188.478 97.827 188.478C97.3346 188.478 96.9179 188.608 96.577 188.869C96.2408 189.129 95.9828 189.498 95.8028 189.977C95.6229 190.455 95.5329 191.018 95.5329 191.667ZM110.199 197.335C109.077 197.335 108.111 197.107 107.301 196.653C106.496 196.194 105.876 195.545 105.441 194.707C105.005 193.864 104.787 192.867 104.787 191.717C104.787 190.595 105.005 189.61 105.441 188.762C105.876 187.915 106.489 187.254 107.28 186.781C108.076 186.307 109.008 186.07 110.078 186.07C110.798 186.07 111.468 186.186 112.088 186.418C112.713 186.646 113.258 186.989 113.722 187.448C114.191 187.908 114.555 188.485 114.816 189.181C115.076 189.872 115.206 190.682 115.206 191.61V192.441H105.995V190.566H112.358C112.358 190.131 112.264 189.745 112.074 189.408C111.885 189.072 111.622 188.81 111.286 188.62C110.954 188.426 110.568 188.329 110.128 188.329C109.669 188.329 109.262 188.435 108.907 188.649C108.556 188.857 108.282 189.139 108.083 189.494C107.884 189.844 107.782 190.235 107.777 190.666V192.448C107.777 192.988 107.877 193.454 108.076 193.847C108.279 194.24 108.566 194.543 108.935 194.756C109.304 194.97 109.742 195.076 110.249 195.076C110.585 195.076 110.893 195.029 111.172 194.934C111.452 194.839 111.691 194.697 111.889 194.508C112.088 194.319 112.24 194.086 112.344 193.812L115.142 193.997C115 194.669 114.709 195.256 114.269 195.758C113.833 196.255 113.27 196.643 112.578 196.923C111.892 197.197 111.099 197.335 110.199 197.335ZM120.206 190.815V197.122H117.181V186.212H120.064V188.137H120.192C120.434 187.503 120.838 187.001 121.407 186.631C121.975 186.257 122.664 186.07 123.473 186.07C124.231 186.07 124.891 186.236 125.455 186.568C126.018 186.899 126.456 187.372 126.769 187.988C127.081 188.599 127.237 189.328 127.237 190.176V197.122H124.212V190.715C124.217 190.048 124.046 189.527 123.701 189.153C123.355 188.774 122.879 188.585 122.273 188.585C121.866 188.585 121.506 188.672 121.193 188.847C120.886 189.023 120.644 189.278 120.469 189.614C120.299 189.946 120.211 190.346 120.206 190.815ZM129.679 197.122V182.576H135.503C136.573 182.576 137.465 182.735 138.18 183.052C138.895 183.369 139.433 183.81 139.793 184.373C140.152 184.932 140.332 185.576 140.332 186.305C140.332 186.873 140.219 187.372 139.991 187.803C139.764 188.229 139.452 188.58 139.054 188.854C138.661 189.124 138.211 189.316 137.704 189.43V189.572C138.258 189.595 138.777 189.752 139.26 190.041C139.748 190.329 140.143 190.734 140.446 191.255C140.749 191.771 140.9 192.387 140.9 193.102C140.9 193.873 140.709 194.562 140.325 195.168C139.946 195.77 139.385 196.246 138.642 196.596C137.899 196.946 136.982 197.122 135.893 197.122H129.679ZM132.754 194.607H135.261C136.118 194.607 136.743 194.444 137.136 194.117C137.529 193.786 137.726 193.345 137.726 192.796C137.726 192.394 137.629 192.039 137.435 191.731C137.24 191.423 136.963 191.182 136.604 191.006C136.248 190.831 135.825 190.744 135.332 190.744H132.754V194.607ZM132.754 188.663H135.034C135.455 188.663 135.829 188.589 136.156 188.443C136.488 188.291 136.748 188.078 136.937 187.803C137.132 187.529 137.229 187.2 137.229 186.816C137.229 186.291 137.042 185.867 136.668 185.545C136.298 185.223 135.773 185.062 135.091 185.062H132.754V188.663ZM142.845 197.122V186.212H145.778V188.116H145.892C146.09 187.439 146.424 186.927 146.893 186.582C147.362 186.231 147.902 186.056 148.512 186.056C148.664 186.056 148.827 186.066 149.002 186.085C149.178 186.104 149.331 186.13 149.464 186.163V188.847C149.322 188.805 149.126 188.767 148.875 188.734C148.624 188.701 148.394 188.684 148.186 188.684C147.741 188.684 147.343 188.781 146.992 188.975C146.647 189.165 146.372 189.43 146.169 189.771C145.97 190.112 145.87 190.505 145.87 190.95V197.122H142.845ZM153.827 197.328C153.131 197.328 152.51 197.207 151.966 196.965C151.421 196.719 150.99 196.357 150.673 195.879C150.361 195.396 150.204 194.794 150.204 194.075C150.204 193.469 150.316 192.96 150.538 192.548C150.761 192.136 151.064 191.804 151.447 191.553C151.831 191.302 152.266 191.113 152.754 190.985C153.247 190.857 153.763 190.767 154.302 190.715C154.937 190.649 155.448 190.587 155.837 190.531C156.225 190.469 156.507 190.379 156.682 190.261C156.857 190.142 156.945 189.967 156.945 189.735V189.693C156.945 189.243 156.802 188.895 156.518 188.649C156.239 188.402 155.841 188.279 155.325 188.279C154.781 188.279 154.347 188.4 154.025 188.641C153.704 188.878 153.49 189.176 153.386 189.536L150.588 189.309C150.73 188.646 151.009 188.073 151.426 187.59C151.843 187.103 152.38 186.729 153.038 186.468C153.701 186.203 154.468 186.07 155.339 186.07C155.945 186.07 156.525 186.141 157.079 186.283C157.638 186.426 158.133 186.646 158.564 186.944C158.999 187.242 159.343 187.626 159.594 188.095C159.845 188.559 159.97 189.115 159.97 189.764V197.122H157.101V195.609H157.016C156.84 195.95 156.606 196.25 156.312 196.511C156.019 196.766 155.666 196.968 155.254 197.114C154.842 197.256 154.366 197.328 153.827 197.328ZM154.693 195.239C155.138 195.239 155.531 195.152 155.872 194.977C156.213 194.797 156.481 194.555 156.675 194.252C156.869 193.949 156.966 193.606 156.966 193.222V192.065C156.871 192.126 156.741 192.183 156.575 192.235C156.414 192.283 156.232 192.328 156.028 192.37C155.825 192.408 155.621 192.444 155.418 192.477C155.214 192.505 155.029 192.531 154.864 192.555C154.508 192.607 154.198 192.69 153.933 192.803C153.668 192.917 153.462 193.071 153.315 193.265C153.168 193.454 153.095 193.691 153.095 193.975C153.095 194.387 153.244 194.702 153.543 194.92C153.846 195.133 154.229 195.239 154.693 195.239ZM162.317 197.122V186.212H165.343V197.122H162.317ZM163.837 184.806C163.387 184.806 163.002 184.657 162.68 184.359C162.362 184.056 162.204 183.694 162.204 183.272C162.204 182.855 162.362 182.498 162.68 182.2C163.002 181.897 163.387 181.745 163.837 181.745C164.287 181.745 164.671 181.897 164.988 182.2C165.31 182.498 165.471 182.855 165.471 183.272C165.471 183.694 165.31 184.056 164.988 184.359C164.671 184.657 164.287 184.806 163.837 184.806ZM170.792 190.815V197.122H167.767V186.212H170.65V188.137H170.778C171.019 187.503 171.424 187.001 171.992 186.631C172.561 186.257 173.25 186.07 174.059 186.07C174.817 186.07 175.477 186.236 176.041 186.568C176.604 186.899 177.042 187.372 177.355 187.988C177.667 188.599 177.823 189.328 177.823 190.176V197.122H174.798V190.715C174.803 190.048 174.632 189.527 174.286 189.153C173.941 188.774 173.465 188.585 172.859 188.585C172.452 188.585 172.092 188.672 171.779 188.847C171.472 189.023 171.23 189.278 171.055 189.614C170.885 189.946 170.797 190.346 170.792 190.815Z" fill="white"/>
<path d="M127.787 43.8869C129.191 43.8869 130.403 43.1771 131.565 42.4958C133.061 41.6196 134.492 40.7811 136.401 41.0007C146.996 42.2201 154.414 45.7628 159.328 50.8208C164.94 56.5969 167.25 64.2887 167.277 72.7263C167.33 72.77 167.379 72.8183 167.423 72.8707C173.806 75.5176 178.354 79.5298 181.408 84.4668C184.954 90.2001 186.454 97.1397 186.454 104.603C186.454 107.086 186.288 109.511 185.936 111.853C185.947 111.916 185.952 111.981 185.952 112.048C185.951 112.24 185.904 112.421 185.821 112.58C185.074 117.019 183.643 121.145 181.385 124.782C178.302 129.748 173.697 133.777 167.223 136.417C167.233 136.644 167.242 136.879 167.25 137.121C167.269 137.725 167.278 138.249 167.278 138.697C167.278 146.996 165.427 154.616 160.689 160.532C155.956 166.444 148.385 170.597 136.964 171.945C134.992 172.177 133.434 171.114 131.82 170.013C130.559 169.152 129.257 168.263 127.901 168.263C126.492 168.263 125.102 169.21 123.803 170.094C122.253 171.149 120.808 172.134 119.116 171.931C108.518 170.659 101.111 166.963 96.2074 161.685C90.5816 155.63 88.2962 147.553 88.2962 138.697C88.2962 138.249 88.3057 137.725 88.3249 137.121C88.3286 137.003 88.3326 136.888 88.337 136.774C88.3259 136.763 88.315 136.752 88.3043 136.741C88.1764 136.608 88.0869 136.452 88.0353 136.286C81.7269 133.644 77.2223 129.667 74.1898 124.782C70.6266 119.042 69.1201 112.087 69.1201 104.603C69.1201 97.1397 70.62 90.2001 74.1663 84.4668C77.2432 79.4924 81.8374 75.4566 88.2965 72.8104C88.3089 64.3313 90.6201 56.6007 96.2626 50.8041C101.187 45.7449 108.619 42.2045 119.235 40.9937C121.112 40.7796 122.549 41.6204 124.048 42.4969C125.212 43.1783 126.423 43.8869 127.787 43.8869ZM107.222 116.494C107.671 116.051 108.39 116.061 108.828 116.516C109.265 116.971 109.255 117.699 108.805 118.141L99.3661 127.419C99.3172 127.5 99.2576 127.577 99.1871 127.646L90.6466 136.04C90.6229 136.444 90.6052 136.829 90.5937 137.193C90.5804 137.61 90.5739 138.112 90.5739 138.697C90.5739 146.999 92.6794 154.53 97.8624 160.109C99.9191 162.323 102.468 164.239 105.57 165.784L113.609 157.794C114.056 157.349 114.775 157.355 115.215 157.807C115.654 158.26 115.648 158.988 115.201 159.433L107.798 166.791C111.094 168.136 114.936 169.11 119.383 169.644C120.246 169.747 121.353 168.993 122.54 168.185C123.792 167.333 125.113 166.433 126.648 166.096V128.91L114.521 141.499L114.503 141.517C114.393 141.627 114.377 141.643 114.377 141.643C114.492 141.761 114.64 141.906 114.811 142.074C114.973 142.232 115.155 142.411 115.373 142.63L121.19 148.289C121.642 148.729 121.656 149.457 121.221 149.914C120.787 150.372 120.067 150.386 119.615 149.946L113.798 144.286L113.784 144.273C113.586 144.074 113.396 143.887 113.227 143.722C113.05 143.548 112.897 143.398 112.758 143.255L112.751 143.247L106.221 149.83C105.776 150.278 105.057 150.276 104.615 149.826C104.173 149.376 104.175 148.648 104.619 148.2L112.972 139.78C113.023 139.728 113.078 139.683 113.136 139.643L126.648 125.617V106.996L116.916 116.409C116.461 116.846 115.742 116.828 115.31 116.368C114.877 115.908 114.895 115.18 115.35 114.743L126.305 104.148L119.689 97.6679C119.239 97.2254 119.229 96.4976 119.666 96.0426C120.104 95.5876 120.823 95.5775 121.272 96.0201L128.396 102.996L133.918 102.974C134.12 102.299 134.484 101.695 134.965 101.208C135.724 100.441 136.771 99.9659 137.928 99.9659C139.085 99.9659 140.132 100.441 140.89 101.208C141.649 101.975 142.118 103.035 142.118 104.206C142.118 105.377 141.649 106.437 140.89 107.204C140.132 107.972 139.085 108.446 137.928 108.446C136.771 108.446 135.724 107.972 134.965 107.204C134.445 106.678 134.061 106.014 133.871 105.271L128.926 105.29V134.544L145.368 134.57C145.565 133.861 145.939 133.227 146.44 132.721C147.198 131.953 148.245 131.479 149.402 131.479C150.559 131.479 151.606 131.953 152.365 132.721C153.123 133.488 153.592 134.548 153.592 135.719C153.592 136.89 153.123 137.95 152.365 138.717C151.606 139.485 150.559 139.959 149.402 139.959C148.245 139.959 147.198 139.485 146.44 138.717C145.939 138.21 145.564 137.576 145.368 136.866L128.926 136.841V166.05C130.5 166.335 131.814 167.231 133.092 168.104C134.351 168.963 135.566 169.792 136.706 169.657C137.87 169.52 138.99 169.353 140.069 169.156V158.874C139.381 158.673 138.766 158.298 138.273 157.799C137.515 157.032 137.046 155.972 137.046 154.801C137.046 153.63 137.515 152.57 138.273 151.803C139.032 151.035 140.079 150.561 141.236 150.561C142.393 150.561 143.44 151.035 144.198 151.803C144.956 152.57 145.426 153.63 145.426 154.801C145.426 155.972 144.956 157.032 144.198 157.799C143.692 158.311 143.057 158.693 142.347 158.89V168.685C150.019 166.898 155.371 163.525 158.928 159.083C163.294 153.629 165.001 146.505 165.001 138.697C165.001 138.112 164.994 137.61 164.981 137.193C164.971 136.887 164.957 136.567 164.939 136.232L151.332 121.809C150.77 122.093 150.137 122.252 149.467 122.252C148.31 122.252 147.263 121.777 146.504 121.01C145.746 120.243 145.277 119.182 145.277 118.012C145.277 116.841 145.746 115.781 146.504 115.013C147.263 114.246 148.31 113.771 149.467 113.771C150.624 113.771 151.671 114.246 152.429 115.013C153.188 115.781 153.657 116.841 153.657 118.012C153.657 118.84 153.422 119.612 153.016 120.265L166.278 134.323C172.329 131.876 176.613 128.148 179.463 123.557C181.385 120.461 182.663 116.959 183.398 113.183L171.73 113.114C171.54 113.856 171.157 114.52 170.637 115.046C169.879 115.813 168.831 116.288 167.674 116.288C166.518 116.288 165.47 115.813 164.712 115.046C163.954 114.278 163.485 113.218 163.485 112.047C163.485 110.877 163.954 109.817 164.712 109.049C165.47 108.282 166.518 107.807 167.674 107.807C168.831 107.807 169.879 108.282 170.637 109.049C171.118 109.536 171.483 110.141 171.685 110.817L183.774 110.889C184.047 108.856 184.177 106.754 184.177 104.603C184.177 100.636 183.737 96.8379 182.768 93.3266H165.254C165.055 94.0227 164.685 94.6452 164.192 95.144C163.434 95.9114 162.386 96.386 161.229 96.386C160.073 96.386 159.025 95.9114 158.267 95.144C157.509 94.3766 157.04 93.3165 157.04 92.1458C157.04 90.975 157.509 89.915 158.267 89.1476C159.025 88.3803 160.073 87.9056 161.229 87.9056C162.386 87.9056 163.434 88.3803 164.192 89.1476C164.698 89.6598 165.075 90.3025 165.27 91.0214H182.039C181.364 89.1378 180.519 87.3513 179.486 85.6824C176.595 81.0076 172.214 77.2238 165.993 74.7716H147.928C147.729 75.4677 147.359 76.0902 146.866 76.589C146.108 77.3563 145.06 77.831 143.903 77.831C142.747 77.831 141.699 77.3563 140.941 76.589C140.183 75.8216 139.714 74.7615 139.714 73.5908C139.714 72.42 140.183 71.36 140.941 70.5926C141.699 69.8252 142.747 69.3506 143.903 69.3506C145.06 69.3506 146.108 69.8252 146.866 70.5926C147.372 71.1048 147.749 71.7475 147.944 72.4664H164.998C164.926 64.7041 162.797 57.6696 157.709 52.4326C154.624 49.2581 150.439 46.7227 144.949 45.0568V54.595C145.637 54.7965 146.252 55.1716 146.745 55.6704C147.503 56.4377 147.972 57.4978 147.972 58.6686C147.972 59.8393 147.503 60.8994 146.745 61.6667C145.987 62.4341 144.939 62.9088 143.782 62.9088C142.626 62.9088 141.578 62.4341 140.82 61.6667C140.062 60.8994 139.593 59.8393 139.593 58.6686C139.593 57.4978 140.062 56.4377 140.82 55.6704C141.326 55.1582 141.961 54.7764 142.671 54.5792V44.4342C140.659 43.9421 138.489 43.5568 136.152 43.2879C134.979 43.153 133.867 43.8048 132.704 44.4858C131.562 45.1551 130.381 45.8468 128.926 46.0956V74.6201L141.808 88.2745C142.424 87.9133 143.14 87.7065 143.903 87.7065C145.06 87.7065 146.108 88.1812 146.866 88.9485C147.624 89.7159 148.093 90.7759 148.093 91.9467C148.093 93.1174 147.624 94.1775 146.866 94.9449C146.108 95.7122 145.06 96.1869 143.903 96.1869C142.747 96.1869 141.699 95.7122 140.941 94.9449C140.183 94.1775 139.714 93.1174 139.714 91.9467C139.714 91.2136 139.898 90.524 140.221 89.9224L127.805 76.7615L113.366 91.1188C112.919 91.5639 112.199 91.5579 111.76 91.1053C111.32 90.6528 111.326 89.9251 111.773 89.48L126.648 74.6893V46.0924C125.223 45.841 124.048 45.1534 122.909 44.4869C121.743 43.8049 120.625 43.1508 119.484 43.2809C117.653 43.4898 115.924 43.7701 114.293 44.1171L114.298 62.797L120.824 70.8696C121.222 71.3619 121.15 72.0876 120.663 72.4904C120.177 72.8932 119.46 72.8206 119.062 72.3283L113.164 65.0319L107.266 72.3283C106.868 72.8206 106.151 72.8932 105.664 72.4904C105.178 72.0876 105.106 71.3619 105.504 70.8696L112.029 62.7973L112.024 44.6587C105.85 46.302 101.222 48.985 97.8819 52.4159C92.6917 57.7479 90.5739 64.946 90.5739 72.8793C90.5739 73.3633 90.5688 72.9679 90.5709 73.2273V73.2319C90.5711 73.2706 90.5715 73.3113 90.572 73.3538L98.5842 81.231C99.0338 81.6736 99.0438 82.4013 98.6064 82.8563C98.1691 83.3114 97.4501 83.3214 97.0005 82.8788L88.9954 75.0087C83.0841 77.4645 78.8881 81.1557 76.0881 85.6824C72.7919 91.0113 71.3978 97.5386 71.3978 104.603C71.3978 107.985 71.7179 111.244 72.4134 114.308L100.826 86.0517C101.274 85.6067 101.993 85.6127 102.432 86.0653C102.872 86.5178 102.866 87.2455 102.419 87.6906L91.2789 98.7692L100.136 107.474C100.585 107.917 100.595 108.644 100.158 109.099C99.7206 109.554 99.0016 109.564 98.5519 109.122L89.6583 100.381L73.0934 116.854C73.8325 119.243 74.8285 121.49 76.1116 123.557C78.9434 128.119 83.1915 131.828 89.1813 134.276L96.8247 126.763L88.0523 118.141C87.6027 117.699 87.5928 116.971 88.0301 116.516C88.4674 116.061 89.1865 116.051 89.6361 116.494L98.4289 125.136L107.222 116.494ZM137.928 102.271C137.4 102.271 136.922 102.488 136.576 102.838C136.23 103.188 136.016 103.672 136.016 104.206C136.016 104.741 136.23 105.224 136.576 105.574C136.922 105.925 137.4 106.141 137.928 106.141C138.456 106.141 138.934 105.925 139.28 105.574C139.626 105.224 139.84 104.741 139.84 104.206C139.84 103.672 139.626 103.188 139.28 102.838C138.934 102.488 138.456 102.271 137.928 102.271ZM169.027 110.679C168.681 110.329 168.203 110.112 167.674 110.112C167.146 110.112 166.668 110.329 166.322 110.679C165.976 111.029 165.762 111.513 165.762 112.047C165.762 112.582 165.976 113.066 166.322 113.416C166.668 113.766 167.146 113.982 167.674 113.982C168.203 113.982 168.681 113.766 169.027 113.416C169.372 113.066 169.586 112.582 169.586 112.047C169.586 111.513 169.372 111.029 169.027 110.679ZM142.588 156.169C142.934 155.819 143.148 155.335 143.148 154.801C143.148 154.267 142.934 153.783 142.588 153.433C142.242 153.083 141.764 152.866 141.236 152.866C140.708 152.866 140.23 153.083 139.884 153.433C139.538 153.783 139.324 154.267 139.324 154.801C139.324 155.335 139.538 155.819 139.884 156.169C140.23 156.519 140.708 156.736 141.236 156.736C141.764 156.736 142.242 156.519 142.588 156.169ZM148.05 137.087C148.396 137.437 148.874 137.654 149.402 137.654C149.93 137.654 150.408 137.437 150.754 137.087C151.1 136.737 151.314 136.253 151.314 135.719C151.314 135.185 151.1 134.701 150.754 134.351C150.408 134 149.93 133.784 149.402 133.784C148.874 133.784 148.396 134 148.05 134.351C147.704 134.701 147.49 135.185 147.49 135.719C147.49 136.253 147.704 136.737 148.05 137.087ZM162.582 90.7774C162.236 90.4273 161.758 90.2108 161.229 90.2108C160.701 90.2108 160.223 90.4273 159.877 90.7774C159.531 91.1275 159.317 91.6113 159.317 92.1458C159.317 92.6803 159.531 93.1641 159.877 93.5142C160.223 93.8643 160.701 94.0809 161.229 94.0809C161.758 94.0809 162.236 93.8643 162.582 93.5142C162.927 93.1641 163.141 92.6803 163.141 92.1458C163.141 91.6113 162.927 91.1275 162.582 90.7774ZM150.819 116.643C150.473 116.293 149.995 116.077 149.467 116.077C148.939 116.077 148.461 116.293 148.115 116.643C147.769 116.993 147.555 117.477 147.555 118.012C147.555 118.546 147.769 119.03 148.115 119.38C148.461 119.73 148.939 119.947 149.467 119.947C149.995 119.947 150.473 119.73 150.819 119.38C151.165 119.03 151.379 118.546 151.379 118.012C151.379 117.477 151.165 116.993 150.819 116.643ZM145.256 90.5783C144.91 90.2282 144.432 90.0116 143.903 90.0116C143.375 90.0116 142.897 90.2282 142.551 90.5783C142.205 90.9284 141.991 91.4122 141.991 91.9467C141.991 92.4811 142.205 92.965 142.551 93.3151C142.897 93.6652 143.375 93.8818 143.903 93.8818C144.432 93.8818 144.91 93.6652 145.256 93.3151C145.601 92.965 145.815 92.4811 145.815 91.9467C145.815 91.4122 145.601 90.9284 145.256 90.5783ZM142.43 57.3002C142.084 57.6503 141.87 58.1341 141.87 58.6686C141.87 59.203 142.084 59.6868 142.43 60.0369C142.776 60.387 143.254 60.6036 143.782 60.6036C144.311 60.6036 144.789 60.387 145.135 60.0369C145.48 59.6868 145.694 59.203 145.694 58.6686C145.694 58.1341 145.48 57.6503 145.135 57.3002C144.789 56.9501 144.311 56.7335 143.782 56.7335C143.254 56.7335 142.776 56.9501 142.43 57.3002ZM145.256 72.2224C144.91 71.8723 144.432 71.6557 143.903 71.6557C143.375 71.6557 142.897 71.8723 142.551 72.2224C142.205 72.5725 141.991 73.0563 141.991 73.5908C141.991 74.1252 142.205 74.6091 142.551 74.9592C142.897 75.3093 143.375 75.5259 143.903 75.5259C144.432 75.5259 144.91 75.3093 145.256 74.9592C145.601 74.6091 145.815 74.1252 145.815 73.5908C145.815 73.0563 145.601 72.5725 145.256 72.2224Z" fill="white" stroke="white"/>
</svg>
